# xmcd CD database file
#
# Track frame offsets:
#	150
#	23994
#	49214
#	75463
#	94723
#
# Disc length: 1626 seconds
#
# Revision: 1
# Processed by: cddbd v1.5.2PL0 Copyright (c) Steve Scherf et al.
# Submitted via: CDex 1.51
#
DISCID=32065805
DTITLE=The Killing Tree - We Sing Sin
DYEAR=1900
DGENRE=Hardcore
TTITLE0=Mascara
TTITLE1=Everything You Had Is Gone
TTITLE2=Jesus Christ Pose
TTITLE3=We Have Awakened
TTITLE4=Look Alive
EXTD=
EXTT0=
EXTT1=
EXTT2=
EXTT3=
EXTT4=
PLAYORDER=
